<svg width="24" height="24" viewBox="0 0 24 24" fill="none" xmlns="http://www.w3.org/2000/svg">
<path fill-rule="evenodd" clip-rule="evenodd" d="M12 22C17.5228 22 22 17.5228 22 12C22 6.47715 17.5228 2 12 2C6.47715 2 2 6.47715 2 12C2 17.5228 6.47715 22 12 22ZM17.2127 9.30685C17.5662 8.88257 17.5089 8.25201 17.0846 7.89845C16.6604 7.54488 16.0298 7.60221 15.6762 8.02648L11.5227 13.0107C11.176 13.4268 10.9811 13.6571 10.8255 13.7986L10.8195 13.804L10.8131 13.7992C10.6453 13.6723 10.4303 13.4606 10.0474 13.0776L8.26266 11.2929C7.87214 10.9024 7.23897 10.9024 6.84845 11.2929C6.45793 11.6834 6.45793 12.3166 6.84845 12.7071L8.63317 14.4918L8.67399 14.5327C9.00049 14.8593 9.31458 15.1735 9.60683 15.3945C9.93419 15.642 10.3629 15.8748 10.9123 15.8499C11.4617 15.8249 11.8676 15.5543 12.1712 15.2782C12.4423 15.0316 12.7266 14.6903 13.0222 14.3354L13.0592 14.2911L17.2127 9.30685Z" fill="#00CD6B"/>
</svg>
