<svg width="15" height="18" viewBox="0 0 15 18" fill="none" xmlns="http://www.w3.org/2000/svg">
<path d="M1.8 18C1.305 18 0.88125 17.8238 0.52875 17.4713C0.17625 17.1188 0 16.695 0 16.2V1.8C0 1.305 0.17625 0.88125 0.52875 0.52875C0.88125 0.17625 1.305 0 1.8 0H12.6C13.095 0 13.5187 0.17625 13.8712 0.52875C14.2237 0.88125 14.4 1.305 14.4 1.8V16.2C14.4 16.695 14.2237 17.1188 13.8712 17.4713C13.5187 17.8238 13.095 18 12.6 18H1.8ZM2.7 14.4H11.7L8.595 10.35L6.525 13.05L5.13 11.25L2.7 14.4Z" fill="#030406"/>
</svg>
