<svg width="24" height="24" viewBox="0 0 24 24" fill="none" xmlns="http://www.w3.org/2000/svg">
<path fill-rule="evenodd" clip-rule="evenodd" d="M22 12C22 17.5228 17.5228 22 12 22C6.47715 22 2 17.5228 2 12C2 6.47715 6.47715 2 12 2C17.5228 2 22 6.47715 22 12ZM6.84845 17.1516C6.45792 16.761 6.45792 16.1279 6.84845 15.7373L10.5858 12L6.84845 8.26266C6.45792 7.87214 6.45792 7.23897 6.84845 6.84845C7.23897 6.45792 7.87214 6.45792 8.26266 6.84845L12 10.5858L15.7373 6.84845C16.1279 6.45792 16.761 6.45792 17.1516 6.84845C17.5421 7.23897 17.5421 7.87214 17.1516 8.26266L13.4142 12L17.1516 15.7373C17.5421 16.1279 17.5421 16.761 17.1516 17.1516C16.761 17.5421 16.1279 17.5421 15.7373 17.1516L12 13.4142L8.26266 17.1516C7.87214 17.5421 7.23897 17.5421 6.84845 17.1516Z" fill="#E40000"/>
</svg>
