<svg width="18" height="18" viewBox="0 0 18 18" fill="none" xmlns="http://www.w3.org/2000/svg">
<path d="M8.17463 0.181951C8.69851 -0.0606505 9.30325 -0.0606505 9.82713 0.181951L17.513 3.73308C17.8119 3.8702 18.0018 4.16906 18.0018 4.49956C18.0018 4.83006 17.8119 5.12892 17.513 5.26604L9.82713 8.81717C9.30325 9.05977 8.69851 9.05977 8.17463 8.81717L0.48872 5.26604C0.189862 5.1254 0 4.82655 0 4.49956C0 4.17258 0.189862 3.8702 0.48872 3.73308L8.17463 0.181951ZM15.6425 7.36859L17.513 8.23352C17.8119 8.37064 18.0018 8.6695 18.0018 9C18.0018 9.3305 17.8119 9.62936 17.513 9.76648L9.82713 13.3176C9.30325 13.5602 8.69851 13.5602 8.17463 13.3176L0.48872 9.76648C0.189862 9.62584 0 9.32699 0 9C0 8.67302 0.189862 8.37064 0.48872 8.23352L2.35921 7.36859L7.70349 9.8368C8.52622 10.2165 9.47553 10.2165 10.2983 9.8368L15.6425 7.36859ZM10.2983 14.3372L15.6425 11.869L17.513 12.734C17.8119 12.8711 18.0018 13.1699 18.0018 13.5004C18.0018 13.8309 17.8119 14.1298 17.513 14.2669L9.82713 17.818C9.30325 18.0607 8.69851 18.0607 8.17463 17.818L0.48872 14.2669C0.189862 14.1263 0 13.8274 0 13.5004C0 13.1735 0.189862 12.8711 0.48872 12.734L2.35921 11.869L7.70349 14.3372C8.52622 14.717 9.47553 14.717 10.2983 14.3372Z" fill="#030406"/>
</svg>
