<svg width="10" height="10" viewBox="0 0 10 10" fill="none" xmlns="http://www.w3.org/2000/svg">
<path fill-rule="evenodd" clip-rule="evenodd" d="M10 5C10 7.76142 7.76142 10 5 10C2.23858 10 0 7.76142 0 5C0 2.23858 2.23858 0 5 0C7.76142 0 10 2.23858 10 5ZM2.42426 7.57564C2.229 7.38038 2.229 7.0638 2.42426 6.86853L4.29289 4.9999L2.42419 3.1312C2.22893 2.93593 2.22893 2.61935 2.42419 2.42409C2.61945 2.22883 2.93603 2.22883 3.1313 2.42409L5 4.29279L6.8687 2.42409C7.06397 2.22883 7.38055 2.22883 7.57581 2.42409C7.77107 2.61935 7.77107 2.93593 7.57581 3.1312L5.70711 4.9999L7.57574 6.86853C7.771 7.0638 7.771 7.38038 7.57574 7.57564C7.38048 7.7709 7.0639 7.7709 6.86864 7.57564L5 5.707L3.13137 7.57564C2.9361 7.7709 2.61952 7.7709 2.42426 7.57564Z" fill="#222222"/>
</svg>
