<svg width="16" height="17" viewBox="0 0 16 17" fill="none" xmlns="http://www.w3.org/2000/svg">
<path d="M1.33203 6.4987C1.33203 5.87872 1.33203 5.56873 1.40018 5.31439C1.58511 4.62421 2.12421 4.08511 2.81439 3.90018C3.06873 3.83203 3.37872 3.83203 3.9987 3.83203H11.9987C12.6187 3.83203 12.9287 3.83203 13.183 3.90018C13.8732 4.08511 14.4123 4.62421 14.5972 5.31439C14.6654 5.56873 14.6654 5.87872 14.6654 6.4987C14.6654 6.65369 14.6654 6.73119 14.6483 6.79477C14.6021 6.96732 14.4673 7.10209 14.2948 7.14833C14.2312 7.16536 14.1537 7.16536 13.9987 7.16536H1.9987C1.8437 7.16536 1.7662 7.16536 1.70262 7.14833C1.53008 7.10209 1.3953 6.96732 1.34907 6.79477C1.33203 6.73119 1.33203 6.65369 1.33203 6.4987Z" fill="#4C5559"/>
<path d="M1.33203 11.168C1.33203 13.0536 1.33203 13.9964 1.91782 14.5822C2.5036 15.168 3.44641 15.168 5.33203 15.168H10.6654C12.551 15.168 13.4938 15.168 14.0796 14.5822C14.6654 13.9964 14.6654 13.0536 14.6654 11.168V9.5013C14.6654 9.0299 14.6654 8.7942 14.5189 8.64775C14.3725 8.5013 14.1368 8.5013 13.6654 8.5013H2.33203C1.86063 8.5013 1.62492 8.5013 1.47848 8.64775C1.33203 8.7942 1.33203 9.0299 1.33203 9.5013V11.168Z" fill="#4C5559"/>
<path d="M4.66797 2.5L4.66797 4.5" stroke="#4C5559" stroke-width="2" stroke-linecap="round"/>
<path d="M11.332 2.5L11.332 4.5" stroke="#4C5559" stroke-width="2" stroke-linecap="round"/>
</svg>
