<svg width="18" height="20" viewBox="0 0 18 20" fill="none" xmlns="http://www.w3.org/2000/svg">
<path d="M5.69773 1.49173C5.89862 1.08623 6.31157 0.833252 6.76172 0.833252H11.2409C11.691 0.833252 12.104 1.08623 12.3049 1.49173L12.5727 2.02373H16.1442C16.8026 2.02373 17.3346 2.55572 17.3346 3.2142C17.3346 3.87269 16.8026 4.40468 16.1442 4.40468H1.85844C1.19996 4.40468 0.667969 3.87269 0.667969 3.2142C0.667969 2.55572 1.19996 2.02373 1.85844 2.02373H5.42987L5.69773 1.49173ZM1.85844 5.59516H16.1442V17.4999C16.1442 18.8132 15.0765 19.8809 13.7632 19.8809H4.2394C2.92615 19.8809 1.85844 18.8132 1.85844 17.4999V5.59516ZM5.42987 7.97611C5.10249 7.97611 4.83464 8.24397 4.83464 8.57135V16.9047C4.83464 17.2321 5.10249 17.4999 5.42987 17.4999C5.75725 17.4999 6.02511 17.2321 6.02511 16.9047V8.57135C6.02511 8.24397 5.75725 7.97611 5.42987 7.97611ZM9.0013 7.97611C8.67392 7.97611 8.40606 8.24397 8.40606 8.57135V16.9047C8.40606 17.2321 8.67392 17.4999 9.0013 17.4999C9.32868 17.4999 9.59654 17.2321 9.59654 16.9047V8.57135C9.59654 8.24397 9.32868 7.97611 9.0013 7.97611ZM12.5727 7.97611C12.2453 7.97611 11.9775 8.24397 11.9775 8.57135V16.9047C11.9775 17.2321 12.2453 17.4999 12.5727 17.4999C12.9001 17.4999 13.168 17.2321 13.168 16.9047V8.57135C13.168 8.24397 12.9001 7.97611 12.5727 7.97611Z" fill="#6C757D"/>
</svg>
