<svg width="20" height="16" viewBox="0 0 20 16" fill="none" xmlns="http://www.w3.org/2000/svg">
<path d="M9.99913 0.222168C7.19358 0.222168 4.94705 1.49995 3.31163 3.02078C1.68663 4.52772 0.599826 6.33328 0.0859375 7.57286C-0.0286458 7.84717 -0.0286458 8.15272 0.0859375 8.42703C0.599826 9.66661 1.68663 11.4722 3.31163 12.9791C4.94705 14.4999 7.19358 15.7777 9.99913 15.7777C12.8047 15.7777 15.0512 14.4999 16.6866 12.9791C18.3116 11.4687 19.3984 9.66661 19.9158 8.42703C20.0304 8.15272 20.0304 7.84717 19.9158 7.57286C19.3984 6.33328 18.3116 4.52772 16.6866 3.02078C15.0512 1.49995 12.8047 0.222168 9.99913 0.222168ZM4.99913 7.99995C4.99913 6.67386 5.52592 5.40209 6.4636 4.46441C7.40128 3.52673 8.67305 2.99995 9.99913 2.99995C11.3252 2.99995 12.597 3.52673 13.5347 4.46441C14.4723 5.40209 14.9991 6.67386 14.9991 7.99995C14.9991 9.32603 14.4723 10.5978 13.5347 11.5355C12.597 12.4732 11.3252 12.9999 9.99913 12.9999C8.67305 12.9999 7.40128 12.4732 6.4636 11.5355C5.52592 10.5978 4.99913 9.32603 4.99913 7.99995ZM9.99913 5.77772C9.99913 7.00342 9.0026 7.99995 7.77691 7.99995C7.53038 7.99995 7.29427 7.95828 7.07205 7.88536C6.88108 7.82286 6.65885 7.94092 6.6658 8.14231C6.67622 8.38189 6.71094 8.62147 6.77691 8.86106C7.2526 10.6388 9.08247 11.6944 10.8602 11.2187C12.638 10.743 13.6936 8.91314 13.2179 7.13536C12.8325 5.69439 11.5582 4.72564 10.1415 4.66661C9.94011 4.65967 9.82205 4.87842 9.88455 5.07286C9.95747 5.29508 9.99913 5.5312 9.99913 5.77772Z" fill="#6C757D"/>
</svg>
