<svg width="18" height="15" viewBox="0 0 18 15" fill="none" xmlns="http://www.w3.org/2000/svg">
<path d="M4.05 13.8002C1.81406 13.8002 0 11.9861 0 9.7502C0 7.98395 1.13062 6.48207 2.70562 5.92801C2.70281 5.85207 2.7 5.77613 2.7 5.7002C2.7 3.21395 4.71375 1.2002 7.2 1.2002C8.86781 1.2002 10.3219 2.10582 11.1009 3.45582C11.5284 3.16895 12.0459 3.0002 12.6 3.0002C14.0906 3.0002 15.3 4.20957 15.3 5.7002C15.3 6.04332 15.2353 6.36957 15.12 6.67332C16.7625 7.0052 18 8.45926 18 10.2002C18 12.1886 16.3884 13.8002 14.4 13.8002H4.05ZM6.27187 9.10332L8.52187 11.3533C8.78625 11.6177 9.21375 11.6177 9.47531 11.3533L11.7253 9.10332C11.9897 8.83894 11.9897 8.41145 11.7253 8.14988C11.4609 7.88832 11.0334 7.88551 10.7719 8.14988L9.675 9.24676V5.4752C9.675 5.10113 9.37406 4.8002 9 4.8002C8.62594 4.8002 8.325 5.10113 8.325 5.4752V9.24676L7.22812 8.14988C6.96375 7.88551 6.53625 7.88551 6.27469 8.14988C6.01312 8.41426 6.01031 8.84176 6.27469 9.10332H6.27187Z" fill="#DB4444"/>
</svg>
