<svg width="61" height="60" viewBox="0 0 61 60" fill="none" xmlns="http://www.w3.org/2000/svg">
<g clip-path="url(#clip0_2324_17626)">
<path d="M30.5 56.25C23.5381 56.25 16.8613 53.4844 11.9384 48.5616C7.01562 43.6387 4.25 36.9619 4.25 30C4.25 23.0381 7.01562 16.3613 11.9384 11.4384C16.8613 6.51562 23.5381 3.75 30.5 3.75C37.4619 3.75 44.1387 6.51562 49.0616 11.4384C53.9844 16.3613 56.75 23.0381 56.75 30C56.75 36.9619 53.9844 43.6387 49.0616 48.5616C44.1387 53.4844 37.4619 56.25 30.5 56.25ZM30.5 60C38.4565 60 46.0871 56.8393 51.7132 51.2132C57.3393 45.5871 60.5 37.9565 60.5 30C60.5 22.0435 57.3393 14.4129 51.7132 8.7868C46.0871 3.16071 38.4565 0 30.5 0C22.5435 0 14.9129 3.16071 9.2868 8.7868C3.66071 14.4129 0.5 22.0435 0.5 30C0.5 37.9565 3.66071 45.5871 9.2868 51.2132C14.9129 56.8393 22.5435 60 30.5 60Z" fill="#DC3741"/>
<path d="M26.7578 41.2492C26.7578 40.7568 26.8548 40.2691 27.0433 39.8142C27.2317 39.3592 27.5079 38.9458 27.8562 38.5976C28.2044 38.2493 28.6178 37.9731 29.0728 37.7847C29.5277 37.5962 30.0154 37.4992 30.5078 37.4992C31.0003 37.4992 31.4879 37.5962 31.9429 37.7847C32.3978 37.9731 32.8112 38.2493 33.1595 38.5976C33.5077 38.9458 33.7839 39.3592 33.9724 39.8142C34.1608 40.2691 34.2578 40.7568 34.2578 41.2492C34.2578 42.2438 33.8627 43.1976 33.1595 43.9009C32.4562 44.6041 31.5024 44.9992 30.5078 44.9992C29.5133 44.9992 28.5594 44.6041 27.8562 43.9009C27.1529 43.1976 26.7578 42.2438 26.7578 41.2492ZM27.1253 18.7305C27.0754 18.2574 27.1255 17.7791 27.2723 17.3266C27.4192 16.8741 27.6595 16.4575 27.9778 16.1039C28.296 15.7503 28.685 15.4676 29.1196 15.274C29.5542 15.0805 30.0246 14.9805 30.5003 14.9805C30.976 14.9805 31.4464 15.0805 31.881 15.274C32.3156 15.4676 32.7046 15.7503 33.0229 16.1039C33.3411 16.4575 33.5815 16.8741 33.7283 17.3266C33.8752 17.7791 33.9252 18.2574 33.8753 18.7305L32.5628 31.8817C32.5187 32.3984 32.2823 32.8796 31.9004 33.2304C31.5185 33.5811 31.0188 33.7757 30.5003 33.7757C29.9818 33.7757 29.4822 33.5811 29.1002 33.2304C28.7183 32.8796 28.4819 32.3984 28.4378 31.8817L27.1253 18.7305Z" fill="#DC3741"/>
</g>
<defs>
<clipPath id="clip0_2324_17626">
<rect width="60" height="60" fill="white" transform="translate(0.5)"/>
</clipPath>
</defs>
</svg>
