<svg width="20" height="19" viewBox="0 0 20 19" fill="none" xmlns="http://www.w3.org/2000/svg">
<g clip-path="url(#clip0_2362_17969)">
<path d="M9.99913 1.91797C7.19358 1.91797 4.94705 3.19575 3.31163 4.71658C1.68663 6.22352 0.599826 8.02908 0.0859375 9.26866C-0.0286458 9.54297 -0.0286458 9.84852 0.0859375 10.1228C0.599826 11.3624 1.68663 13.168 3.31163 14.6749C4.94705 16.1957 7.19358 17.4735 9.99913 17.4735C12.8047 17.4735 15.0512 16.1957 16.6866 14.6749C18.3116 13.1645 19.3984 11.3624 19.9158 10.1228C20.0304 9.84852 20.0304 9.54297 19.9158 9.26866C19.3984 8.02908 18.3116 6.22352 16.6866 4.71658C15.0512 3.19575 12.8047 1.91797 9.99913 1.91797ZM4.99913 9.69575C4.99913 8.36966 5.52592 7.09789 6.4636 6.16021C7.40128 5.22253 8.67305 4.69575 9.99913 4.69575C11.3252 4.69575 12.597 5.22253 13.5347 6.16021C14.4723 7.09789 14.9991 8.36966 14.9991 9.69575C14.9991 11.0218 14.4723 12.2936 13.5347 13.2313C12.597 14.169 11.3252 14.6957 9.99913 14.6957C8.67305 14.6957 7.40128 14.169 6.4636 13.2313C5.52592 12.2936 4.99913 11.0218 4.99913 9.69575ZM9.99913 7.47352C9.99913 8.69922 9.0026 9.69575 7.77691 9.69575C7.53038 9.69575 7.29427 9.65408 7.07205 9.58116C6.88108 9.51866 6.65885 9.63672 6.6658 9.83811C6.67622 10.0777 6.71094 10.3173 6.77691 10.5569C7.2526 12.3346 9.08247 13.3902 10.8602 12.9145C12.638 12.4388 13.6936 10.6089 13.2179 8.83116C12.8325 7.39019 11.5582 6.42144 10.1415 6.36241C9.94011 6.35547 9.82205 6.57422 9.88455 6.76866C9.95747 6.99089 9.99913 7.227 9.99913 7.47352Z" fill="#6C757D"/>
</g>
<defs>
<clipPath id="clip0_2362_17969">
<rect width="20" height="17.7778" fill="white" transform="translate(0 0.808594)"/>
</clipPath>
</defs>
</svg>
