<svg width="18" height="15" viewBox="0 0 18 15" fill="none" xmlns="http://www.w3.org/2000/svg">
<g clip-path="url(#clip0_3133_17137)">
<path d="M1.09141 0.143351C0.798908 -0.0872735 0.374221 -0.033836 0.143596 0.258664C-0.0870294 0.551164 -0.0335919 0.975852 0.258908 1.20648L16.9089 14.2565C17.2014 14.4871 17.6261 14.4337 17.8567 14.1412C18.0873 13.8487 18.0339 13.424 17.7414 13.1934L14.7827 10.8759C15.8964 9.73398 16.6502 8.45429 17.0298 7.54585C17.1227 7.32366 17.1227 7.07616 17.0298 6.85398C16.6108 5.84991 15.7305 4.38741 14.4142 3.16679C13.0923 1.93491 11.2727 0.899914 9.00016 0.899914C7.08203 0.899914 5.48453 1.6396 4.2386 2.60991L1.09141 0.143351ZM6.27485 4.2046C6.99203 3.54929 7.9511 3.14991 9.00016 3.14991C11.2361 3.14991 13.0502 4.96398 13.0502 7.19991C13.0502 7.90023 12.873 8.55835 12.5608 9.1321L11.4752 8.28273C11.6214 7.95085 11.7002 7.58523 11.7002 7.19991C11.7002 5.70929 10.4908 4.49991 9.00016 4.49991C8.92141 4.49991 8.84266 4.50273 8.76391 4.51116C8.91297 4.77273 9.00016 5.07648 9.00016 5.39991C9.00016 5.68679 8.93266 5.95679 8.81453 6.19585L6.27485 4.2046ZM12.5495 12.5859L10.4908 10.9659C10.0295 11.1487 9.5261 11.2499 9.00016 11.2499C6.76422 11.2499 4.95016 9.43585 4.95016 7.19991C4.95016 7.00585 4.96422 6.81741 4.98953 6.63179L2.33735 4.5421C1.6961 5.37741 1.23766 6.20991 0.970471 6.85398C0.877658 7.07616 0.877658 7.32366 0.970471 7.54585C1.38953 8.54991 2.26985 10.0124 3.5861 11.233C4.90797 12.4649 6.72766 13.4999 9.00016 13.4999C10.3445 13.4999 11.5286 13.1371 12.5495 12.5859Z" fill="#727272"/>
</g>
<defs>
<clipPath id="clip0_3133_17137">
<rect width="18" height="14.4" fill="white"/>
</clipPath>
</defs>
</svg>
