<svg width="100" height="100" viewBox="0 0 100 100" fill="none" xmlns="http://www.w3.org/2000/svg">
<path opacity="0.5" d="M15.6251 50.0004C15.6241 43.9659 17.2118 38.0374 20.2284 32.811C23.2451 27.5846 27.5844 23.2444 32.8102 20.2267C38.036 17.2091 43.9642 15.6203 49.9987 15.62C56.0332 15.6198 61.9615 17.2081 67.1876 20.2254C67.9049 20.6333 68.7545 20.7408 69.5509 20.5246C70.3473 20.3084 71.0258 19.786 71.4384 19.0713C71.851 18.3567 71.9642 17.5078 71.7533 16.71C71.5424 15.9122 71.0245 15.2302 70.3126 14.8129C62.5679 10.3415 53.5643 8.55052 44.6981 9.71764C35.8318 10.8848 27.5984 14.9448 21.2748 21.268C14.9511 27.5913 10.8906 35.8244 9.72287 44.6906C8.55518 53.5568 10.3456 62.5605 14.8165 70.3054C19.2873 78.0503 26.1888 84.1036 34.4505 87.5265C42.7123 90.9494 51.8726 91.5506 60.5108 89.2369C69.149 86.9232 76.7825 81.8239 82.2273 74.7297C87.672 67.6356 90.6239 58.9431 90.6251 50.0004C90.6251 49.1716 90.2958 48.3767 89.7098 47.7907C89.1237 47.2046 88.3289 46.8754 87.5001 46.8754C86.6713 46.8754 85.8764 47.2046 85.2904 47.7907C84.7043 48.3767 84.3751 49.1716 84.3751 50.0004C84.3751 59.1172 80.7534 67.8606 74.3069 74.3072C67.8603 80.7538 59.1169 84.3754 50.0001 84.3754C40.8832 84.3754 32.1398 80.7538 25.6933 74.3072C19.2467 67.8606 15.6251 59.1172 15.6251 50.0004Z" fill="#A5DC86"/>
<path d="M95.9625 20.9625C96.2531 20.672 96.4836 20.3271 96.6408 19.9474C96.7981 19.5678 96.879 19.1609 96.879 18.75C96.879 18.3391 96.7981 17.9323 96.6408 17.5526C96.4836 17.173 96.2531 16.8281 95.9625 16.5375C95.672 16.247 95.3271 16.0165 94.9474 15.8593C94.5678 15.702 94.1609 15.6211 93.75 15.6211C93.3391 15.6211 92.9323 15.702 92.5526 15.8593C92.173 16.0165 91.8281 16.247 91.5375 16.5375L50 58.0813L33.4625 41.5375C33.172 41.247 32.8271 41.0165 32.4474 40.8593C32.0678 40.702 31.6609 40.6211 31.25 40.6211C30.8391 40.6211 30.4323 40.702 30.0526 40.8593C29.673 41.0165 29.3281 41.247 29.0375 41.5375C28.747 41.8281 28.5165 42.173 28.3593 42.5526C28.202 42.9323 28.1211 43.3391 28.1211 43.75C28.1211 44.1609 28.202 44.5678 28.3593 44.9474C28.5165 45.3271 28.747 45.672 29.0375 45.9625L47.7875 64.7125C48.0778 65.0036 48.4227 65.2345 48.8023 65.392C49.182 65.5495 49.589 65.6306 50 65.6306C50.4111 65.6306 50.8181 65.5495 51.1977 65.392C51.5774 65.2345 51.9223 65.0036 52.2125 64.7125L95.9625 20.9625Z" fill="#A5DC86"/>
</svg>
