<svg width="60" height="60" viewBox="0 0 60 60" fill="none" xmlns="http://www.w3.org/2000/svg">
<g clip-path="url(#clip0_2366_21116)">
<path d="M30 56.25C23.0381 56.25 16.3613 53.4844 11.4384 48.5616C6.51562 43.6387 3.75 36.9619 3.75 30C3.75 23.0381 6.51562 16.3613 11.4384 11.4384C16.3613 6.51562 23.0381 3.75 30 3.75C36.9619 3.75 43.6387 6.51562 48.5616 11.4384C53.4844 16.3613 56.25 23.0381 56.25 30C56.25 36.9619 53.4844 43.6387 48.5616 48.5616C43.6387 53.4844 36.9619 56.25 30 56.25ZM30 60C37.9565 60 45.5871 56.8393 51.2132 51.2132C56.8393 45.5871 60 37.9565 60 30C60 22.0435 56.8393 14.4129 51.2132 8.7868C45.5871 3.16071 37.9565 0 30 0C22.0435 0 14.4129 3.16071 8.7868 8.7868C3.16071 14.4129 0 22.0435 0 30C0 37.9565 3.16071 45.5871 8.7868 51.2132C14.4129 56.8393 22.0435 60 30 60Z" fill="#DC3741"/>
<path d="M26.2578 41.2502C26.2578 40.7577 26.3548 40.2701 26.5433 39.8151C26.7317 39.3602 27.0079 38.9468 27.3562 38.5985C27.7044 38.2503 28.1178 37.9741 28.5728 37.7856C29.0277 37.5972 29.5154 37.5002 30.0078 37.5002C30.5003 37.5002 30.9879 37.5972 31.4429 37.7856C31.8978 37.9741 32.3112 38.2503 32.6595 38.5985C33.0077 38.9468 33.2839 39.3602 33.4724 39.8151C33.6608 40.2701 33.7578 40.7577 33.7578 41.2502C33.7578 42.2448 33.3627 43.1986 32.6595 43.9018C31.9562 44.6051 31.0024 45.0002 30.0078 45.0002C29.0133 45.0002 28.0594 44.6051 27.3562 43.9018C26.6529 43.1986 26.2578 42.2448 26.2578 41.2502ZM26.6253 18.7314C26.5754 18.2583 26.6255 17.78 26.7723 17.3276C26.9192 16.8751 27.1595 16.4585 27.4778 16.1049C27.796 15.7513 28.185 15.4685 28.6196 15.275C29.0542 15.0815 29.5246 14.9814 30.0003 14.9814C30.476 14.9814 30.9464 15.0815 31.381 15.275C31.8156 15.4685 32.2046 15.7513 32.5229 16.1049C32.8411 16.4585 33.0815 16.8751 33.2283 17.3276C33.3752 17.78 33.4252 18.2583 33.3753 18.7314L32.0628 31.8827C32.0187 32.3993 31.7823 32.8806 31.4004 33.2313C31.0185 33.582 30.5188 33.7766 30.0003 33.7766C29.4818 33.7766 28.9822 33.582 28.6002 33.2313C28.2183 32.8806 27.9819 32.3993 27.9378 31.8827L26.6253 18.7314Z" fill="#DC3741"/>
</g>
<defs>
<clipPath id="clip0_2366_21116">
<rect width="60" height="60" fill="white"/>
</clipPath>
</defs>
</svg>
