<svg width="61" height="60" viewBox="0 0 61 60" fill="none" xmlns="http://www.w3.org/2000/svg">
<g clip-path="url(#clip0_2366_20275)">
<path d="M30.5 56.25C23.5381 56.25 16.8613 53.4844 11.9384 48.5616C7.01562 43.6387 4.25 36.9619 4.25 30C4.25 23.0381 7.01562 16.3613 11.9384 11.4384C16.8613 6.51562 23.5381 3.75 30.5 3.75C37.4619 3.75 44.1387 6.51562 49.0616 11.4384C53.9844 16.3613 56.75 23.0381 56.75 30C56.75 36.9619 53.9844 43.6387 49.0616 48.5616C44.1387 53.4844 37.4619 56.25 30.5 56.25ZM30.5 60C38.4565 60 46.0871 56.8393 51.7132 51.2132C57.3393 45.5871 60.5 37.9565 60.5 30C60.5 22.0435 57.3393 14.4129 51.7132 8.7868C46.0871 3.16071 38.4565 0 30.5 0C22.5435 0 14.9129 3.16071 9.2868 8.7868C3.66071 14.4129 0.5 22.0435 0.5 30C0.5 37.9565 3.66071 45.5871 9.2868 51.2132C14.9129 56.8393 22.5435 60 30.5 60Z" fill="#DC3741"/>
<path d="M25.3125 25.3125C25.5611 25.3125 25.7996 25.4113 25.9754 25.5871C26.1512 25.7629 26.25 26.0014 26.25 26.25V37.5C26.25 37.7486 26.1512 37.9871 25.9754 38.1629C25.7996 38.3387 25.5611 38.4375 25.3125 38.4375C25.0639 38.4375 24.8254 38.3387 24.6496 38.1629C24.4738 37.9871 24.375 37.7486 24.375 37.5V26.25C24.375 26.0014 24.4738 25.7629 24.6496 25.5871C24.8254 25.4113 25.0639 25.3125 25.3125 25.3125ZM30 25.3125C30.2486 25.3125 30.4871 25.4113 30.6629 25.5871C30.8387 25.7629 30.9375 26.0014 30.9375 26.25V37.5C30.9375 37.7486 30.8387 37.9871 30.6629 38.1629C30.4871 38.3387 30.2486 38.4375 30 38.4375C29.7514 38.4375 29.5129 38.3387 29.3371 38.1629C29.1613 37.9871 29.0625 37.7486 29.0625 37.5V26.25C29.0625 26.0014 29.1613 25.7629 29.3371 25.5871C29.5129 25.4113 29.7514 25.3125 30 25.3125ZM35.625 26.25C35.625 26.0014 35.5262 25.7629 35.3504 25.5871C35.1746 25.4113 34.9361 25.3125 34.6875 25.3125C34.4389 25.3125 34.2004 25.4113 34.0246 25.5871C33.8488 25.7629 33.75 26.0014 33.75 26.25V37.5C33.75 37.7486 33.8488 37.9871 34.0246 38.1629C34.2004 38.3387 34.4389 38.4375 34.6875 38.4375C34.9361 38.4375 35.1746 38.3387 35.3504 38.1629C35.5262 37.9871 35.625 37.7486 35.625 37.5V26.25Z" fill="#DC3741"/>
<path d="M42.1875 20.625C42.1875 21.1223 41.99 21.5992 41.6383 21.9508C41.2867 22.3025 40.8098 22.5 40.3125 22.5H39.375V39.375C39.375 40.3696 38.9799 41.3234 38.2766 42.0267C37.5734 42.7299 36.6196 43.125 35.625 43.125H24.375C23.3804 43.125 22.4266 42.7299 21.7233 42.0267C21.0201 41.3234 20.625 40.3696 20.625 39.375V22.5H19.6875C19.1902 22.5 18.7133 22.3025 18.3617 21.9508C18.01 21.5992 17.8125 21.1223 17.8125 20.625V18.75C17.8125 18.2527 18.01 17.7758 18.3617 17.4242C18.7133 17.0725 19.1902 16.875 19.6875 16.875H26.25C26.25 16.3777 26.4475 15.9008 26.7992 15.5492C27.1508 15.1975 27.6277 15 28.125 15H31.875C32.3723 15 32.8492 15.1975 33.2008 15.5492C33.5525 15.9008 33.75 16.3777 33.75 16.875H40.3125C40.8098 16.875 41.2867 17.0725 41.6383 17.4242C41.99 17.7758 42.1875 18.2527 42.1875 18.75V20.625ZM22.7213 22.5L22.5 22.6106V39.375C22.5 39.8723 22.6975 40.3492 23.0492 40.7008C23.4008 41.0525 23.8777 41.25 24.375 41.25H35.625C36.1223 41.25 36.5992 41.0525 36.9508 40.7008C37.3025 40.3492 37.5 39.8723 37.5 39.375V22.6106L37.2787 22.5H22.7213ZM19.6875 20.625H40.3125V18.75H19.6875V20.625Z" fill="#DC3545"/>
</g>
<defs>
<clipPath id="clip0_2366_20275">
<rect width="60" height="60" fill="white" transform="translate(0.5)"/>
</clipPath>
</defs>
</svg>
