<svg width="18" height="18" viewBox="0 0 18 18" fill="none" xmlns="http://www.w3.org/2000/svg">
<path d="M15.7486 6.37305H2.25161C1.82486 6.37305 1.50086 6.72105 1.50086 7.1223C1.50086 7.2108 1.42211 6.6858 2.77136 15.1165C2.82911 15.481 3.14336 15.748 3.51236 15.748H14.4886C14.8576 15.748 15.1719 15.481 15.2296 15.1165C16.5804 6.67905 16.4994 7.21155 16.4994 7.12155C16.4994 6.70305 16.1574 6.37305 15.7486 6.37305ZM15.0256 4.1103H3.00311C2.61011 4.1103 2.25236 4.4268 2.25236 4.86555C2.25236 4.9263 2.24486 4.87755 2.35736 5.62305H15.6714C15.7854 4.86405 15.7756 4.9248 15.7756 4.8663C15.7756 4.4313 15.4239 4.1103 15.0256 4.1103ZM3.04586 3.3603H14.9829C15.0264 3.0333 15.0241 3.0408 15.0241 2.9988C15.0241 2.49555 14.5929 2.24805 14.2734 2.24805H3.75536C3.35336 2.24805 3.00461 2.5728 3.00461 2.99805C3.00461 3.04005 3.00161 3.0303 3.04586 3.3603Z" fill="#DB4444"/>
</svg>
