<svg width="18" height="18" viewBox="0 0 18 18" fill="none" xmlns="http://www.w3.org/2000/svg">
<path d="M15.7486 6.37347H2.25161C1.82486 6.37347 1.50086 6.72147 1.50086 7.12272C1.50086 7.21122 1.42211 6.68622 2.77136 15.117C2.82911 15.4815 3.14336 15.7485 3.51236 15.7485H14.4886C14.8576 15.7485 15.1719 15.4815 15.2296 15.117C16.5804 6.67947 16.4994 7.21197 16.4994 7.12197C16.4994 6.70347 16.1574 6.37347 15.7486 6.37347ZM15.0256 4.11072H3.00311C2.61011 4.11072 2.25236 4.42722 2.25236 4.86597C2.25236 4.92672 2.24486 4.87797 2.35736 5.62347H15.6714C15.7854 4.86447 15.7756 4.92522 15.7756 4.86672C15.7756 4.43172 15.4239 4.11072 15.0256 4.11072ZM3.04586 3.36072H14.9829C15.0264 3.03372 15.0241 3.04122 15.0241 2.99922C15.0241 2.49597 14.5929 2.24847 14.2734 2.24847H3.75536C3.35336 2.24847 3.00461 2.57322 3.00461 2.99847C3.00461 3.04047 3.00161 3.03072 3.04586 3.36072Z" fill="#030406"/>
</svg>
