<svg width="20" height="21" viewBox="0 0 20 21" fill="none" xmlns="http://www.w3.org/2000/svg">
<g clip-path="url(#clip0_2362_17971)">
<path d="M16.027 9.72461L16.4684 9.2832L15.1442 7.95898L12.7184 5.5332L11.3942 4.20898L10.9528 4.65039L10.07 5.5332L2.28872 13.3145C1.88247 13.7207 1.58559 14.2246 1.42153 14.7754L0.0387177 19.4785C-0.0589386 19.8066 0.0309051 20.1621 0.276999 20.4043C0.523093 20.6465 0.874655 20.7363 1.20278 20.6426L5.902 19.2598C6.45278 19.0957 6.95669 18.7988 7.36294 18.3926L15.1442 10.6113L16.027 9.72461ZM6.24966 16.3027L5.89419 17.1895C5.73794 17.3105 5.56216 17.4004 5.37466 17.459L2.31997 18.3574L3.21841 15.3066C3.27309 15.1152 3.36684 14.9395 3.48794 14.7871L4.37466 14.4316V15.6816C4.37466 16.0254 4.65591 16.3066 4.99966 16.3066H6.24966V16.3027ZM14.1676 1.43164L13.6051 1.99805L12.7223 2.88086L12.277 3.32227L13.6012 4.64648L16.027 7.07227L17.3512 8.39648L17.7926 7.95508L18.6754 7.07227L19.2418 6.50586C20.2184 5.5293 20.2184 3.94727 19.2418 2.9707L17.7067 1.43164C16.7301 0.455078 15.1481 0.455078 14.1715 1.43164H14.1676ZM12.3161 7.99414L6.69106 13.6191C6.44887 13.8613 6.05044 13.8613 5.80825 13.6191C5.56606 13.377 5.56606 12.9785 5.80825 12.7363L11.4333 7.11133C11.6754 6.86914 12.0739 6.86914 12.3161 7.11133C12.5582 7.35352 12.5582 7.75195 12.3161 7.99414Z" fill="#6C757D"/>
</g>
<defs>
<clipPath id="clip0_2362_17971">
<rect width="20" height="20" fill="white" transform="translate(0 0.699219)"/>
</clipPath>
</defs>
</svg>
