<svg width="16" height="17" viewBox="0 0 16 17" fill="none" xmlns="http://www.w3.org/2000/svg">
<path fill-rule="evenodd" clip-rule="evenodd" d="M10.6821 12.2458C9.66576 13.0361 8.38866 13.5067 7.00167 13.5067C3.68704 13.5067 1 10.8189 1 7.50335C1 4.18779 3.68704 1.5 7.00167 1.5C10.3163 1.5 13.0033 4.18779 13.0033 7.50335C13.0033 8.89059 12.533 10.1679 11.743 11.1845L14.7799 14.2186C15.0731 14.5115 15.0734 14.9867 14.7806 15.2799C14.4878 15.5731 14.0128 15.5734 13.7196 15.2805L10.6821 12.2458ZM11.5029 7.50335C11.5029 9.99002 9.48765 12.0059 7.00167 12.0059C4.5157 12.0059 2.50042 9.99002 2.50042 7.50335C2.50042 5.01668 4.5157 3.00084 7.00167 3.00084C9.48765 3.00084 11.5029 5.01668 11.5029 7.50335Z" fill="#868FA0"/>
</svg>
