<svg width="18" height="20" viewBox="0 0 18 20" fill="none" xmlns="http://www.w3.org/2000/svg">
<path d="M5.69773 1.18973C5.89862 0.784226 6.31157 0.53125 6.76172 0.53125H11.2409C11.691 0.53125 12.104 0.784226 12.3049 1.18973L12.5727 1.72173H16.1442C16.8026 1.72173 17.3346 2.25372 17.3346 2.9122C17.3346 3.57068 16.8026 4.10268 16.1442 4.10268H1.85844C1.19996 4.10268 0.667969 3.57068 0.667969 2.9122C0.667969 2.25372 1.19996 1.72173 1.85844 1.72173H5.42987L5.69773 1.18973ZM1.85844 5.29315H16.1442V17.1979C16.1442 18.5112 15.0765 19.5789 13.7632 19.5789H4.2394C2.92615 19.5789 1.85844 18.5112 1.85844 17.1979V5.29315ZM5.42987 7.67411C5.10249 7.67411 4.83464 7.94196 4.83464 8.26935V16.6027C4.83464 16.9301 5.10249 17.1979 5.42987 17.1979C5.75725 17.1979 6.02511 16.9301 6.02511 16.6027V8.26935C6.02511 7.94196 5.75725 7.67411 5.42987 7.67411ZM9.0013 7.67411C8.67392 7.67411 8.40606 7.94196 8.40606 8.26935V16.6027C8.40606 16.9301 8.67392 17.1979 9.0013 17.1979C9.32868 17.1979 9.59654 16.9301 9.59654 16.6027V8.26935C9.59654 7.94196 9.32868 7.67411 9.0013 7.67411ZM12.5727 7.67411C12.2453 7.67411 11.9775 7.94196 11.9775 8.26935V16.6027C11.9775 16.9301 12.2453 17.1979 12.5727 17.1979C12.9001 17.1979 13.168 16.9301 13.168 16.6027V8.26935C13.168 7.94196 12.9001 7.67411 12.5727 7.67411Z" fill="currentColor"/>
</svg>
