<svg width="20" height="20" viewBox="0 0 20 20" fill="none" xmlns="http://www.w3.org/2000/svg">
<path d="M6.69773 1.49149C6.89862 1.08598 7.31157 0.833008 7.76172 0.833008H12.2409C12.691 0.833008 13.104 1.08598 13.3049 1.49149L13.5727 2.02348H17.1442C17.8026 2.02348 18.3346 2.55548 18.3346 3.21396C18.3346 3.87244 17.8026 4.40444 17.1442 4.40444H2.85844C2.19996 4.40444 1.66797 3.87244 1.66797 3.21396C1.66797 2.55548 2.19996 2.02348 2.85844 2.02348H6.42987L6.69773 1.49149ZM2.85844 5.59491H17.1442V17.4997C17.1442 18.8129 16.0765 19.8806 14.7632 19.8806H5.2394C3.92615 19.8806 2.85844 18.8129 2.85844 17.4997V5.59491ZM6.42987 7.97586C6.10249 7.97586 5.83464 8.24372 5.83464 8.5711V16.9044C5.83464 17.2318 6.10249 17.4997 6.42987 17.4997C6.75725 17.4997 7.02511 17.2318 7.02511 16.9044V8.5711C7.02511 8.24372 6.75725 7.97586 6.42987 7.97586ZM10.0013 7.97586C9.67392 7.97586 9.40606 8.24372 9.40606 8.5711V16.9044C9.40606 17.2318 9.67392 17.4997 10.0013 17.4997C10.3287 17.4997 10.5965 17.2318 10.5965 16.9044V8.5711C10.5965 8.24372 10.3287 7.97586 10.0013 7.97586ZM13.5727 7.97586C13.2453 7.97586 12.9775 8.24372 12.9775 8.5711V16.9044C12.9775 17.2318 13.2453 17.4997 13.5727 17.4997C13.9001 17.4997 14.168 17.2318 14.168 16.9044V8.5711C14.168 8.24372 13.9001 7.97586 13.5727 7.97586Z" fill="currentColor"/>
</svg>
