<svg width="32" height="32" viewBox="0 0 32 32" fill="none" xmlns="http://www.w3.org/2000/svg">
<path d="M11.05 22.2992C8.81406 22.2992 7 20.4852 7 18.2492C7 16.483 8.13062 14.9811 9.70562 14.427C9.70281 14.3511 9.7 14.2752 9.7 14.1992C9.7 11.713 11.7137 9.69922 14.2 9.69922C15.8678 9.69922 17.3219 10.6048 18.1009 11.9548C18.5284 11.668 19.0459 11.4992 19.6 11.4992C21.0906 11.4992 22.3 12.7086 22.3 14.1992C22.3 14.5423 22.2353 14.8686 22.12 15.1723C23.7625 15.5042 25 16.9583 25 18.6992C25 20.6877 23.3884 22.2992 21.4 22.2992H11.05ZM13.2719 17.6023L15.5219 19.8523C15.7863 20.1167 16.2137 20.1167 16.4753 19.8523L18.7253 17.6023C18.9897 17.338 18.9897 16.9105 18.7253 16.6489C18.4609 16.3873 18.0334 16.3845 17.7719 16.6489L16.675 17.7458V13.9742C16.675 13.6002 16.3741 13.2992 16 13.2992C15.6259 13.2992 15.325 13.6002 15.325 13.9742V17.7458L14.2281 16.6489C13.9637 16.3845 13.5363 16.3845 13.2747 16.6489C13.0131 16.9133 13.0103 17.3408 13.2747 17.6023H13.2719Z" fill="#DB4444"/>
</svg>
